<svg xmlns="http://www.w3.org/2000/svg" xmlns:xlink="http://www.w3.org/1999/xlink" width="500" zoomAndPan="magnify" viewBox="0 0 375 374.999991" height="500" preserveAspectRatio="xMidYMid meet" version="1.0"><defs><g/><clipPath id="eea970bfc3"><path d="M 92.113281 90.816406 L 279.613281 90.816406 L 279.613281 278 L 92.113281 278 Z M 92.113281 90.816406 " clip-rule="nonzero"/></clipPath></defs><rect x="-37.5" width="450" fill="#ffffff" y="-37.499999" height="449.999989" fill-opacity="1"/><rect x="-37.5" width="450" fill="#122620" y="-37.499999" height="449.999989" fill-opacity="1"/><g clip-path="url(#eea970bfc3)"><path fill="#fffef9" d="M 185.699219 277.988281 C 133.996094 277.988281 92.113281 235.816406 92.113281 184.402344 C 92.113281 132.988281 133.996094 90.816406 185.699219 90.816406 C 237.402344 90.816406 279.285156 132.699219 279.285156 184.402344 C 279.285156 236.105469 237.113281 277.988281 185.699219 277.988281 Z M 185.699219 96.59375 C 137.175781 96.59375 97.890625 135.875 97.890625 184.402344 C 97.890625 232.929688 137.175781 272.210938 185.699219 272.210938 C 234.226562 272.210938 273.507812 232.929688 273.507812 184.402344 C 273.507812 135.875 233.9375 96.59375 185.699219 96.59375 Z M 185.699219 96.59375 " fill-opacity="1" fill-rule="nonzero"/></g><path stroke-linecap="butt" transform="matrix(1.465975, 0, 0, 1.465975, 69.32406, 91.156364)" fill="none" stroke-linejoin="miter" d="M 8.087195 80.48442 C 8.087195 81.630201 8.438923 82.200427 9.145044 82.200427 C 9.528748 82.200427 9.941762 82.061868 10.381423 81.782084 C 10.821083 81.515623 11.172811 81.275808 11.439272 81.06264 C 12.529097 80.239276 13.493685 78.994903 14.330372 77.332188 C 15.183047 75.672137 15.801236 74.161304 16.18494 72.805018 C 16.451401 71.87507 16.597954 70.929134 16.6246 69.972539 C 16.651246 69.029268 16.664569 67.984741 16.664569 66.841624 C 16.014405 67.212005 15.262985 67.878157 14.410311 68.834751 C 13.573624 69.794011 12.907472 70.572076 12.414519 71.168948 C 11.444602 72.365358 10.480013 73.809575 9.523419 75.498937 C 8.566824 77.188299 8.087195 78.84835 8.087195 80.48442 Z M 7.349098 53.753068 C 7.349098 52.34349 7.727473 51.080466 8.486886 49.963995 C 9.256958 48.847524 10.173583 47.949551 11.239427 47.270075 C 12.302605 46.593265 13.213902 46.252195 13.97065 46.252195 C 14.570187 46.252195 15.015177 46.473358 15.308284 46.910353 C 15.614714 47.336691 15.633366 48.069458 15.366905 49.105991 C 14.716741 49.265867 14.250434 49.359128 13.97065 49.385775 C 13.706854 49.412421 13.485692 49.497688 13.312492 49.644242 C 13.152616 49.777472 12.854179 50.089231 12.414519 50.582184 C 11.324694 51.778593 10.821083 52.743181 10.898357 53.475948 C 10.991618 54.206051 11.431278 54.890856 12.217338 55.530362 C 13.000733 56.15388 13.978644 56.931946 15.148407 57.864559 C 16.331493 58.781184 17.437306 60.030885 18.460516 61.613663 C 19.656925 60.790299 20.887974 59.83104 22.150998 58.741215 L 29.750461 53.435979 C 30.456583 52.943027 31.066778 52.604622 31.586377 52.418099 C 32.105975 52.231576 32.550965 52.138315 32.92401 52.138315 C 33.574175 52.138315 33.848629 52.410105 33.742045 52.95635 C 33.635461 53.489272 33.115862 54.027522 32.185914 54.571103 L 26.638199 58.421462 C 26.427695 58.528046 25.961388 58.839805 25.241944 59.359404 C 24.538487 59.879003 23.760422 60.449229 22.907747 61.075412 C 22.07106 61.701595 21.351616 62.285144 20.754743 62.831389 C 20.155206 63.374969 19.830124 63.729362 19.776832 63.889238 C 19.72354 64.166358 19.803478 64.691285 20.016647 65.464022 C 20.243139 66.220771 20.395021 67.212005 20.474959 68.43506 C 20.554898 69.66078 20.389692 71.155625 19.976678 72.924925 C 19.563663 74.694225 18.679013 76.748638 17.322728 79.088165 C 16.126319 81.110602 14.815331 82.592125 13.39243 83.538061 C 11.982852 84.494655 10.653213 84.974285 9.403511 84.974285 C 8.260394 84.974285 7.322452 84.587916 6.589685 83.817845 C 5.846259 83.058431 5.473214 81.94729 5.473214 80.48442 C 5.473214 78.637846 5.926197 76.833906 6.8295 75.077929 C 7.722144 73.33794 8.790652 71.728516 10.043017 70.252323 C 11.306042 68.789453 12.462482 67.531758 13.512338 66.481902 C 14.578181 65.418723 15.276308 64.640658 15.60672 64.147705 C 14.956555 63.004588 14.165167 62.013354 13.232554 61.174002 C 12.315928 60.323992 11.404632 59.545926 10.50133 58.839805 C 9.595363 58.123026 8.843944 57.371606 8.247071 56.585547 C 7.647535 55.788829 7.349098 54.845557 7.349098 53.753068 Z M 30.800317 57.025207 C 30.800317 55.828798 30.973517 54.499158 31.319916 53.036288 C 31.679638 51.560095 32.14328 50.1292 32.716171 48.746269 C 33.289061 47.350014 33.907251 46.22022 34.570738 45.356887 C 35.170275 44.690735 35.769812 44.357658 36.366684 44.357658 C 36.846314 44.357658 37.331272 44.498883 37.824225 44.776002 C 37.877517 45.042463 37.944132 45.236979 38.024071 45.356887 C 38.114667 45.460806 38.16263 45.700621 38.16263 46.073666 C 38.16263 46.140281 37.917486 46.665209 37.424534 47.64845 C 36.931581 48.621032 36.401324 49.844087 35.828433 51.32028 C 35.255542 52.78315 34.791901 54.331288 34.432178 55.967357 C 34.085779 57.603427 34.072456 59.100937 34.392209 60.457223 C 35.045038 60.244054 35.615265 59.82571 36.108217 59.199527 C 36.598505 58.576009 37.038165 57.989795 37.424534 57.44355 L 42.332742 50.243778 C 42.876323 49.484365 43.334635 48.820878 43.70768 48.247987 C 44.094049 47.675096 44.666939 47.389983 45.423688 47.389983 C 46.196425 47.389983 46.646743 47.869612 46.779974 48.826207 C 46.913204 49.772143 46.93985 50.848645 46.859912 52.058377 C 46.779974 53.254786 46.766651 54.206051 46.819943 54.912172 C 47.086404 56.86533 47.504747 58.242933 48.077638 59.039651 C 48.647864 59.82571 49.319346 60.217408 50.092082 60.217408 C 51.008707 60.217408 51.986619 59.839033 53.023151 59.07962 C 54.062349 58.309548 55.098881 57.424898 56.135414 56.428335 C 57.174611 55.415783 58.085907 54.531133 58.869302 53.774385 C 59.652697 53.001648 60.238911 52.617945 60.625279 52.617945 C 60.958355 52.617945 61.256791 52.689889 61.523252 52.836442 C 61.803036 52.969673 61.941596 53.249457 61.941596 53.67313 C 61.941596 54.11279 61.60852 54.704333 60.945032 55.450423 C 60.292203 56.180526 59.588747 56.886647 58.829333 57.563458 C 58.072584 58.242933 57.52634 58.746544 57.193264 59.07962 C 56.103439 60.118817 54.920353 61.000803 53.644005 61.73357 C 52.364993 62.463673 51.09664 62.831389 49.833615 62.831389 C 48.474665 62.831389 47.411486 62.463673 46.641414 61.73357 C 45.882001 61.000803 45.325098 60.078848 44.965376 58.959713 C 44.618976 57.843242 44.392485 56.673479 44.2859 55.450423 C 44.179316 54.214045 44.126024 53.108233 44.126024 52.138315 C 43.795612 52.351484 43.395921 52.828449 42.929615 53.574539 C 42.479296 54.304642 42.11158 54.885526 41.831796 55.309199 C 41.501385 55.855444 41.035078 56.606863 40.435541 57.563458 C 39.838669 58.522717 39.172517 59.479311 38.442414 60.435906 C 37.709647 61.381842 36.97155 62.17856 36.228125 62.831389 C 35.495357 63.481553 34.805224 63.8093 34.152395 63.8093 C 32.902693 63.8093 32.044689 63.441584 31.578383 62.711481 C 31.114741 61.978714 30.866932 61.080741 30.840286 60.017562 C 30.81364 58.954383 30.800317 57.95782 30.800317 57.025207 Z M 58.496257 60.71569 C 58.496257 57.989795 58.656134 55.050732 58.975887 51.8985 C 59.308963 48.732945 59.745958 45.602031 60.292203 42.503091 C 60.838448 39.390828 61.43532 36.577002 62.088149 34.064276 C 62.367933 33.254235 62.639723 32.342939 62.906184 31.330388 C 63.185968 30.320501 63.537696 29.449174 63.964034 28.719072 C 64.401029 27.986304 64.979249 27.621253 65.698694 27.621253 C 66.348858 27.621253 66.756543 27.866397 66.91642 28.359349 C 67.073632 28.838979 67.086955 29.422528 66.956389 30.115326 C 66.823158 30.792137 66.641965 31.41832 66.415473 31.991211 C 66.204969 32.561437 66.071739 32.953134 66.018447 33.166303 C 65.578786 34.802373 65.072511 37.024656 64.502285 39.830489 C 63.929394 42.636321 63.383149 45.700621 62.866215 49.026052 C 62.346616 52.351484 61.946925 55.650269 61.669806 58.919744 C 61.403345 62.17856 61.350053 65.130946 61.509929 67.776902 C 61.683129 70.425523 62.120125 72.45329 62.826246 73.862868 C 63.756194 73.369915 64.520937 72.631818 65.120474 71.648578 C 65.717346 70.675996 66.236945 69.727395 66.676605 68.794782 C 67.926306 66.401964 69.149362 63.867921 70.345771 61.195319 C 71.54218 58.522717 72.799875 56.01532 74.116192 53.67313 C 74.542529 52.809796 75.000842 52.37813 75.493794 52.37813 C 75.720286 52.37813 75.898815 52.471391 76.032045 52.657914 C 76.165276 52.841772 76.231891 53.049611 76.231891 53.276103 C 76.231891 53.435979 76.010728 53.952913 75.573733 54.832234 C 75.134072 55.695567 74.681089 56.59354 74.217447 57.523489 C 73.764463 58.442779 73.458033 59.039651 73.298157 59.319435 C 72.754577 60.462552 72.136388 61.800185 71.443589 63.32967 C 70.764114 64.845833 70.100627 66.340678 69.447798 67.816871 C 68.797633 69.293064 68.17145 70.54543 67.574578 71.56864 C 67.294794 72.0083 66.921749 72.591849 66.455443 73.324617 C 66.005124 74.068042 65.506842 74.712878 64.960597 75.259122 C 64.414352 75.805367 63.790834 76.077157 63.084713 76.077157 C 61.994888 76.077157 61.12889 75.530912 60.492049 74.441088 C 59.865866 73.351263 59.415547 71.986983 59.135763 70.350914 C 58.869302 68.714844 58.696103 67.025482 58.616165 65.285493 C 58.536226 63.542839 58.496257 62.018683 58.496257 60.71569 Z M 76.466376 52.218253 C 77.505574 51.672009 78.648691 50.920589 79.898392 49.963995 C 81.161416 49.0074 81.846221 47.874942 81.952805 46.571948 C 81.249349 46.678532 80.497929 47.056907 79.698546 47.709736 C 78.915152 48.362565 78.235676 49.100661 77.66545 49.924025 C 77.092559 50.734066 76.692868 51.498809 76.466376 52.218253 Z M 72.797211 54.174076 C 72.797211 52.815126 73.2422 51.346926 74.132179 49.764149 C 75.038146 48.181372 76.154617 46.83308 77.484257 45.713944 C 78.827219 44.597473 80.15153 44.037905 81.454523 44.037905 C 83.250469 44.037905 84.188412 44.72271 84.26835 46.094983 C 84.361611 47.451269 83.780727 48.919468 82.531025 50.502245 C 81.867538 51.208367 80.881633 52.026402 79.578639 52.95635 C 78.275645 53.872975 76.999298 54.38458 75.749597 54.491164 C 75.749597 55.370485 75.776243 56.148551 75.829535 56.825361 C 75.882827 57.504836 76.261202 58.19497 76.967323 58.901091 C 77.670779 59.617871 78.568752 59.977593 79.658577 59.977593 C 81.081478 59.977593 82.552342 59.532603 84.068504 58.642624 C 85.597989 57.736657 86.767753 56.985238 87.577794 56.388366 C 87.91087 56.108582 88.169337 55.887419 88.355859 55.730207 C 88.555705 55.557008 88.79019 55.362491 89.053987 55.149323 C 90.199768 54.285989 90.916548 53.646483 91.209655 53.236134 C 91.516085 52.823119 91.774552 52.551329 91.98772 52.418099 C 92.214212 52.284869 92.731146 52.218253 93.543852 52.218253 C 93.663759 52.815126 93.709058 53.222811 93.682411 53.435979 C 93.655765 53.646483 93.45059 53.97423 93.064222 54.411226 C 92.080982 55.397131 90.83661 56.513602 89.33377 57.763303 C 87.844254 59.013005 86.242825 60.105494 84.526817 61.035443 C 82.810809 61.965391 81.108124 62.431697 79.418763 62.431697 C 78.542106 62.431697 77.710749 62.285144 76.927354 61.992037 C 76.141294 61.688272 75.389875 61.174002 74.673095 60.457223 C 73.700513 59.487305 73.14361 58.482748 72.997056 57.44355 C 72.863826 56.407018 72.797211 55.317193 72.797211 54.174076 Z M 97.229005 67.318589 C 96.13918 67.318589 95.166598 66.966861 94.316588 66.26074 C 93.479901 65.557283 92.840395 64.824516 92.400735 64.067767 C 91.430817 62.205206 90.87125 60.012233 90.724696 57.48352 C 90.59413 54.944148 90.746013 52.644591 91.185673 50.582184 C 91.292258 49.982647 91.436147 49.265867 91.622669 48.426516 C 91.822515 47.576505 92.110292 46.825086 92.480673 46.172257 C 92.867041 45.508769 93.333348 45.175693 93.876928 45.175693 C 95.126629 45.175693 95.739489 45.602031 95.712843 46.452041 C 95.686197 47.291392 95.454376 48.599715 95.014716 50.382338 C 94.588378 52.151638 94.37521 54.41922 94.37521 57.185083 C 94.37521 58.008447 94.481794 58.994353 94.694963 60.13747 C 94.908131 61.280587 95.246537 62.293138 95.712843 63.169794 C 96.17915 64.033127 96.762699 64.467458 97.46882 64.467458 C 98.345476 64.467458 99.344704 64.086419 100.461175 63.32967 C 101.577646 62.556934 102.60885 61.701595 103.552121 60.755659 C 104.51138 59.799064 105.182861 59.074291 105.566565 58.581338 C 105.673149 58.474754 105.97425 58.109703 106.464538 57.48352 C 106.957491 56.860001 107.543704 56.15388 108.220515 55.370485 C 108.89999 54.571103 109.563478 53.872975 110.216307 53.276103 C 110.866471 52.676566 111.38607 52.37813 111.772438 52.37813 C 112.158806 52.37813 112.350658 52.703212 112.350658 53.356041 C 112.350658 53.739745 112.092191 54.325959 111.572592 55.109353 C 111.052994 55.895413 110.434805 56.726771 109.718025 57.603427 C 109.011904 58.469425 108.32177 59.287459 107.642295 60.057531 C 106.965484 60.816945 106.459209 61.360525 106.126133 61.693601 C 105.475968 62.34643 104.697903 63.124496 103.791936 64.027798 C 102.901957 64.917777 101.910722 65.690514 100.820897 66.340678 C 99.728408 66.993507 98.531999 67.318589 97.229005 67.318589 Z M 94.615024 34.882311 C 94.615024 33.965686 94.862833 33.166303 95.353121 32.489493 C 95.846073 31.796694 96.392318 31.450295 96.98919 31.450295 C 97.64202 31.450295 98.1856 31.86331 98.62526 32.689338 C 99.384673 34.2055 99.477935 35.388586 98.905044 36.238597 C 98.332153 37.077948 97.634026 37.496292 96.810662 37.496292 C 96.27774 37.496292 95.779458 37.283123 95.313152 36.856786 C 94.84951 36.41979 94.615024 35.758967 94.615024 34.882311 Z M 113.403178 60.377284 C 112.260061 60.377284 111.45535 59.804394 110.989043 58.661276 C 110.525401 57.518159 110.317562 56.100588 110.370854 54.411226 C 110.437469 52.724529 110.658632 51.035167 111.029012 49.345805 C 111.415381 47.656444 111.89501 46.238872 112.465236 45.095755 C 113.038127 43.952638 113.624341 43.379747 114.221213 43.379747 C 115.257746 43.379747 115.870606 43.614233 116.057128 44.077875 C 116.256974 44.544181 116.217005 45.268955 115.937221 46.252195 C 115.67076 47.224777 115.359001 48.461155 114.999279 49.963995 C 114.639557 51.466834 114.461028 53.249457 114.461028 55.309199 C 114.580935 55.202615 114.666203 55.122676 114.719495 55.069384 C 114.772787 55.018757 114.826079 54.965465 114.879371 54.912172 L 118.711078 48.447832 C 119.04149 47.901588 119.494473 47.184808 120.067364 46.292164 C 120.63759 45.388862 121.263773 44.570827 121.940584 43.840724 C 122.620059 43.094634 123.286211 42.721589 123.936376 42.721589 C 125.1994 42.721589 126.017435 43.366424 126.39048 44.656095 C 126.776848 45.935107 126.9687 47.224777 126.9687 48.527771 C 127.568237 48.421186 128.29834 47.922905 129.164337 47.030261 C 130.040993 46.126958 130.832382 45.348893 131.538503 44.696064 C 131.922207 44.259068 132.263277 43.880694 132.553719 43.560941 C 132.860149 43.227864 133.233194 42.948081 133.672855 42.721589 C 134.216435 42.455128 134.709387 42.324562 135.149048 42.324562 C 135.692628 42.324562 136.150941 42.54306 136.523986 42.982721 C 136.910354 43.419716 137.128852 44.224428 137.182144 45.394191 C 137.235436 46.566619 137.20879 47.914911 137.102206 49.444396 C 136.995621 50.960558 136.870385 52.484714 136.723831 54.014199 C 136.590601 55.530362 136.523986 56.860001 136.523986 58.003118 C 136.523986 60.515844 136.731825 62.279815 137.142175 63.289701 C 137.555189 64.286265 138.114757 64.784547 138.818214 64.784547 C 139.630919 64.784547 140.539551 64.246296 141.552102 63.169794 C 142.561988 62.079969 143.566546 60.795628 144.563109 59.319435 C 145.575661 57.843242 146.438994 56.508273 147.155773 55.309199 C 147.528819 54.712327 147.89387 54.11279 148.253592 53.515918 C 148.613314 52.916381 149.226174 52.617945 150.089507 52.617945 C 150.249384 52.617945 150.422583 52.729858 150.609106 52.95635 C 150.808952 53.169519 150.907542 53.409333 150.907542 53.67313 C 150.907542 54.006206 150.742336 54.472512 150.40926 55.069384 C 150.089507 55.668921 149.751102 56.255135 149.39138 56.825361 C 149.044981 57.398252 148.759868 57.851236 148.533376 58.181647 C 148.320207 58.554692 148.128355 58.879774 147.955156 59.159558 C 147.795279 59.426019 147.582111 59.777747 147.31565 60.217408 C 147.105146 60.550484 146.883983 60.835597 146.657492 61.075412 C 146.444323 61.315226 146.199179 61.653632 145.919395 62.093292 C 144.882862 63.622777 143.63849 64.957746 142.188943 66.103528 C 140.752719 67.246645 139.356464 67.816871 138.000179 67.816871 C 137.24343 67.816871 136.505333 67.571727 135.785889 67.078775 C 135.082433 66.588487 134.509542 65.743806 134.069881 64.547397 C 133.313133 62.538282 132.948081 60.417253 132.974727 58.181647 C 133.001373 55.948705 133.171908 53.766391 133.491661 51.640033 C 133.824737 49.511011 133.989943 47.656444 133.989943 46.073666 C 133.446363 46.460035 132.780211 47.091547 131.996816 47.968203 C 131.210757 48.834201 130.406045 49.638912 129.582681 50.382338 C 128.769975 51.115105 127.978587 51.480157 127.208515 51.480157 C 125.958813 51.480157 125.100809 50.88062 124.634503 49.684211 C 124.168196 48.487802 123.936376 47.283399 123.936376 46.073666 C 123.01975 46.673203 122.1351 47.736382 121.282426 49.265867 C 120.445738 50.795352 119.601058 52.404776 118.751048 54.094138 C 117.911696 55.780835 117.067015 57.238376 116.217005 58.461431 C 115.377653 59.684486 114.495668 60.323992 113.563055 60.377284 Z M 147.230382 58.741215 C 147.230382 57.598098 147.502172 56.180526 148.048417 54.491164 C 148.594662 52.804467 149.351411 51.128428 150.321328 49.465713 C 151.307233 47.802997 152.437027 46.433388 153.713375 45.356887 C 155.003045 44.264397 156.354002 43.720817 157.76358 43.720817 C 159.079896 43.720817 160.143075 44.099191 160.95578 44.85594 C 161.779144 45.615354 162.272097 46.393419 162.431973 47.190137 C 162.59185 47.976197 162.317395 48.367894 161.613939 48.367894 C 161.067694 48.367894 160.510791 48.056135 159.9379 47.429952 C 159.365009 46.806434 158.701522 46.49201 157.942108 46.49201 C 157.345236 46.49201 156.620462 46.846403 155.767788 47.549859 C 154.931101 48.255981 153.905227 49.644242 152.695494 51.719972 C 152.151914 52.596628 151.645639 53.726422 151.179332 55.109353 C 150.729013 56.49495 150.502522 57.869888 150.502522 59.239497 C 150.609106 59.132912 150.649075 59.092943 150.622429 59.119589 C 150.595783 59.146235 150.689044 59.047645 150.902213 58.821153 L 151.560371 57.843242 C 151.997367 57.193077 152.503642 56.348396 153.076533 55.309199 C 153.646759 54.272666 154.232973 53.22814 154.829846 52.178284 C 155.429383 51.115105 155.975627 50.217132 156.465915 49.484365 C 156.958868 48.740939 157.337242 48.367894 157.603703 48.367894 C 158.586944 48.367894 159.159834 48.727616 159.319711 49.444396 C 159.479587 50.150517 159.546203 51.021844 159.519556 52.058377 C 159.49291 53.081586 159.591501 54.11279 159.817993 55.149323 C 160.137746 56.625516 160.636027 57.704682 161.312838 58.381493 C 162.005636 59.060968 162.783702 59.399373 163.647035 59.399373 C 165.17652 59.399373 166.865882 58.474754 168.71512 56.625516 C 169.485192 55.922059 170.031437 55.335845 170.35119 54.872203 C 170.684266 54.405897 171.121262 53.872975 171.667506 53.276103 C 172.040551 52.729858 172.52551 52.458068 173.125047 52.458068 C 173.721919 52.458068 173.980386 52.961679 173.903113 53.97423 C 173.823175 54.970794 172.752002 56.481627 170.689595 58.5014 L 168.235491 60.457223 C 166.652713 61.547047 165.123228 62.093292 163.647035 62.093292 C 162.290749 62.093292 161.107663 61.688272 160.097776 60.875566 C 159.08789 60.052202 158.309824 59.039651 157.76358 57.843242 C 157.217335 56.646833 156.945545 55.477069 156.945545 54.331288 C 156.5725 54.611072 156.140833 55.215938 155.64788 56.148551 C 155.157592 57.065176 154.624671 58.05641 154.05178 59.119589 C 153.481554 60.185433 152.89534 61.107387 152.298468 61.893447 C 151.698931 62.676841 151.099394 63.071203 150.502522 63.071203 C 148.973036 63.071203 148.040423 62.716811 147.710012 62.013354 C 147.390259 61.307233 147.230382 60.217408 147.230382 58.741215 Z M 173.218308 62.75145 C 172.181776 62.75145 171.510294 62.125267 171.203864 60.875566 C 170.910757 59.625865 170.870788 58.06174 171.083957 56.18852 C 171.310449 54.299312 171.71014 52.418099 172.280366 50.542215 C 172.853257 48.653007 173.490098 47.083553 174.19622 45.833852 C 174.899676 44.58415 175.552505 43.957967 176.152042 43.957967 C 177.081991 43.957967 177.521651 44.384305 177.468359 45.236979 C 177.415067 46.073666 177.140612 47.190137 176.650324 48.586392 C 176.157371 49.969324 175.664419 51.49348 175.174131 53.156195 C 174.681178 54.818911 174.436034 56.433664 174.436034 58.003118 L 178.366332 52.039725 C 178.523544 51.719972 178.877937 51.155075 179.421517 50.342369 C 179.967762 49.519005 180.580621 48.754262 181.257432 48.048141 C 181.936907 47.331361 182.600395 46.971639 183.253224 46.971639 C 183.916711 46.971639 184.43631 47.4113 184.809355 48.287956 L 185.307637 52.855095 C 185.307637 53.348047 185.334283 54.11279 185.387575 55.149323 C 185.440867 56.18852 185.560775 57.238376 185.747297 58.301554 C 185.944478 59.367398 186.258902 60.276029 186.682575 61.035443 C 187.122235 61.792191 187.727101 62.17323 188.499838 62.17323 C 189.309879 62.17323 190.162553 61.688272 191.052533 60.71569 C 191.955835 59.732449 192.827162 58.602655 193.666513 57.323643 C 194.516524 56.033973 195.281266 54.904179 195.960741 53.934261 C 196.650875 52.948356 197.183797 52.458068 197.556842 52.458068 C 198.380206 52.458068 198.766574 52.769827 198.713282 53.39601 C 198.65999 54.019529 198.3882 54.744302 197.895247 55.570331 C 197.402294 56.380372 196.898683 57.139785 196.379085 57.843242 C 195.859486 58.549363 195.547727 58.986359 195.441143 59.159558 C 195.054774 59.652511 194.53784 60.276029 193.885011 61.035443 C 193.234847 61.792191 192.547378 62.503642 191.830598 63.169794 C 191.124477 63.822623 190.447666 64.227643 189.794837 64.38752 C 189.251257 64.547397 188.731659 64.627335 188.238706 64.627335 C 186.989005 64.627335 185.99777 64.166358 185.267668 63.249732 C 184.5349 62.319784 183.977997 61.307233 183.591629 60.217408 C 183.045384 58.581338 182.746948 57.126462 182.693656 55.84745 C 182.640364 54.571103 182.640364 53.481278 182.693656 52.577975 C 182.746948 51.672009 182.635035 50.981875 182.355251 50.502245 C 181.702422 50.928583 181.012288 51.79991 180.279521 53.116226 C 179.549418 54.41922 178.784675 55.820804 177.985293 57.323643 C 177.201898 58.813159 176.410509 60.092171 175.611127 61.15535 C 174.827732 62.218529 174.028349 62.75145 173.218308 62.75145 Z M 173.218308 62.75145 " stroke="#122620" stroke-width="6.128468" stroke-opacity="1" stroke-miterlimit="4"/><g fill="#fffef9" fill-opacity="1"><g transform="translate(79.746228, 189.376706)"><g><path d="M 1.4375 19.765625 C 1.4375 21.441406 1.957031 22.28125 3 22.28125 C 3.550781 22.28125 4.144531 22.078125 4.78125 21.671875 C 5.425781 21.273438 5.945312 20.921875 6.34375 20.609375 C 7.945312 19.410156 9.363281 17.59375 10.59375 15.15625 C 11.832031 12.71875 12.734375 10.5 13.296875 8.5 C 13.691406 7.144531 13.910156 5.769531 13.953125 4.375 C 13.992188 2.976562 14.015625 1.441406 14.015625 -0.234375 C 13.054688 0.316406 11.957031 1.289062 10.71875 2.6875 C 9.476562 4.09375 8.5 5.234375 7.78125 6.109375 C 6.34375 7.867188 4.925781 9.984375 3.53125 12.453125 C 2.132812 14.929688 1.4375 17.367188 1.4375 19.765625 Z M 0.359375 -19.40625 C 0.359375 -21.476562 0.914062 -23.332031 2.03125 -24.96875 C 3.15625 -26.613281 4.492188 -27.929688 6.046875 -28.921875 C 7.609375 -29.921875 8.945312 -30.421875 10.0625 -30.421875 C 10.9375 -30.421875 11.59375 -30.101562 12.03125 -29.46875 C 12.476562 -28.832031 12.5 -27.753906 12.09375 -26.234375 C 11.132812 -25.992188 10.457031 -25.851562 10.0625 -25.8125 C 9.664062 -25.769531 9.347656 -25.648438 9.109375 -25.453125 C 8.867188 -25.253906 8.425781 -24.796875 7.78125 -24.078125 C 6.1875 -22.316406 5.445312 -20.894531 5.5625 -19.8125 C 5.6875 -18.738281 6.328125 -17.742188 7.484375 -16.828125 C 8.640625 -15.910156 10.078125 -14.769531 11.796875 -13.40625 C 13.515625 -12.050781 15.132812 -10.21875 16.65625 -7.90625 C 18.40625 -9.101562 20.203125 -10.5 22.046875 -12.09375 L 33.171875 -19.890625 C 34.210938 -20.609375 35.113281 -21.101562 35.875 -21.375 C 36.632812 -21.65625 37.289062 -21.796875 37.84375 -21.796875 C 38.800781 -21.796875 39.203125 -21.394531 39.046875 -20.59375 C 38.890625 -19.800781 38.128906 -19.003906 36.765625 -18.203125 L 28.625 -12.578125 C 28.3125 -12.421875 27.632812 -11.960938 26.59375 -11.203125 C 25.550781 -10.441406 24.410156 -9.601562 23.171875 -8.6875 C 21.941406 -7.769531 20.882812 -6.910156 20 -6.109375 C 19.125 -5.304688 18.644531 -4.785156 18.5625 -4.546875 C 18.488281 -4.148438 18.609375 -3.390625 18.921875 -2.265625 C 19.242188 -1.148438 19.460938 0.300781 19.578125 2.09375 C 19.703125 3.894531 19.460938 6.09375 18.859375 8.6875 C 18.265625 11.28125 16.96875 14.296875 14.96875 17.734375 C 13.21875 20.679688 11.300781 22.851562 9.21875 24.25 C 7.144531 25.65625 5.191406 26.359375 3.359375 26.359375 C 1.679688 26.359375 0.304688 25.796875 -0.765625 24.671875 C -1.847656 23.554688 -2.390625 21.921875 -2.390625 19.765625 C -2.390625 17.046875 -1.726562 14.410156 -0.40625 11.859375 C 0.90625 9.304688 2.476562 6.953125 4.3125 4.796875 C 6.144531 2.640625 7.835938 0.785156 9.390625 -0.765625 C 10.953125 -2.328125 11.972656 -3.46875 12.453125 -4.1875 C 11.492188 -5.863281 10.335938 -7.320312 8.984375 -8.5625 C 7.628906 -9.800781 6.289062 -10.9375 4.96875 -11.96875 C 3.65625 -13.007812 2.554688 -14.109375 1.671875 -15.265625 C 0.796875 -16.429688 0.359375 -17.8125 0.359375 -19.40625 Z M 0.359375 -19.40625 "/></g></g></g><g fill="#fffef9" fill-opacity="1"><g transform="translate(114.36117, 189.376706)"><g><path d="M 0.125 -14.609375 C 0.125 -16.367188 0.378906 -18.328125 0.890625 -20.484375 C 1.410156 -22.640625 2.085938 -24.734375 2.921875 -26.765625 C 3.765625 -28.804688 4.664062 -30.460938 5.625 -31.734375 C 6.507812 -32.691406 7.390625 -33.171875 8.265625 -33.171875 C 8.984375 -33.171875 9.703125 -32.972656 10.421875 -32.578125 C 10.503906 -32.179688 10.601562 -31.898438 10.71875 -31.734375 C 10.84375 -31.578125 10.90625 -31.21875 10.90625 -30.65625 C 10.90625 -30.582031 10.546875 -29.828125 9.828125 -28.390625 C 9.109375 -26.953125 8.328125 -25.15625 7.484375 -23 C 6.648438 -20.84375 5.972656 -18.566406 5.453125 -16.171875 C 4.929688 -13.773438 4.910156 -11.578125 5.390625 -9.578125 C 6.347656 -9.898438 7.1875 -10.519531 7.90625 -11.4375 C 8.625 -12.351562 9.265625 -13.210938 9.828125 -14.015625 L 17.015625 -24.5625 C 17.804688 -25.675781 18.484375 -26.648438 19.046875 -27.484375 C 19.609375 -28.328125 20.445312 -28.75 21.5625 -28.75 C 22.675781 -28.75 23.332031 -28.050781 23.53125 -26.65625 C 23.738281 -25.257812 23.78125 -23.679688 23.65625 -21.921875 C 23.539062 -20.160156 23.519531 -18.765625 23.59375 -17.734375 C 24 -14.859375 24.617188 -12.835938 25.453125 -11.671875 C 26.296875 -10.515625 27.273438 -9.9375 28.390625 -9.9375 C 29.742188 -9.9375 31.175781 -10.492188 32.6875 -11.609375 C 34.207031 -12.734375 35.726562 -14.035156 37.25 -15.515625 C 38.769531 -16.992188 40.109375 -18.289062 41.265625 -19.40625 C 42.421875 -20.519531 43.28125 -21.078125 43.84375 -21.078125 C 44.320312 -21.078125 44.757812 -20.976562 45.15625 -20.78125 C 45.550781 -20.582031 45.75 -20.164062 45.75 -19.53125 C 45.75 -18.882812 45.269531 -18.019531 44.3125 -16.9375 C 43.351562 -15.863281 42.316406 -14.828125 41.203125 -13.828125 C 40.085938 -12.835938 39.289062 -12.101562 38.8125 -11.625 C 37.207031 -10.101562 35.46875 -8.800781 33.59375 -7.71875 C 31.71875 -6.644531 29.863281 -6.109375 28.03125 -6.109375 C 26.03125 -6.109375 24.472656 -6.644531 23.359375 -7.71875 C 22.242188 -8.800781 21.425781 -10.160156 20.90625 -11.796875 C 20.382812 -13.429688 20.039062 -15.144531 19.875 -16.9375 C 19.71875 -18.738281 19.640625 -20.359375 19.640625 -21.796875 C 19.160156 -21.484375 18.582031 -20.785156 17.90625 -19.703125 C 17.226562 -18.628906 16.691406 -17.769531 16.296875 -17.125 C 15.816406 -16.332031 15.132812 -15.234375 14.25 -13.828125 C 13.375 -12.429688 12.394531 -11.035156 11.3125 -9.640625 C 10.238281 -8.242188 9.160156 -7.066406 8.078125 -6.109375 C 7.003906 -5.148438 5.988281 -4.671875 5.03125 -4.671875 C 3.195312 -4.671875 1.9375 -5.207031 1.25 -6.28125 C 0.570312 -7.363281 0.210938 -8.679688 0.171875 -10.234375 C 0.140625 -11.796875 0.125 -13.253906 0.125 -14.609375 Z M 0.125 -14.609375 "/></g></g></g><g fill="#fffef9" fill-opacity="1"><g transform="translate(154.845068, 189.376706)"><g><path d="M 0.234375 -9.21875 C 0.234375 -13.21875 0.472656 -17.53125 0.953125 -22.15625 C 1.429688 -26.789062 2.070312 -31.382812 2.875 -35.9375 C 3.675781 -40.488281 4.554688 -44.597656 5.515625 -48.265625 C 5.910156 -49.460938 6.304688 -50.800781 6.703125 -52.28125 C 7.109375 -53.757812 7.628906 -55.035156 8.265625 -56.109375 C 8.898438 -57.191406 9.738281 -57.734375 10.78125 -57.734375 C 11.738281 -57.734375 12.335938 -57.375 12.578125 -56.65625 C 12.816406 -55.9375 12.835938 -55.078125 12.640625 -54.078125 C 12.441406 -53.078125 12.179688 -52.15625 11.859375 -51.3125 C 11.535156 -50.476562 11.335938 -49.90625 11.265625 -49.59375 C 10.617188 -47.195312 9.875 -43.941406 9.03125 -39.828125 C 8.195312 -35.710938 7.398438 -31.21875 6.640625 -26.34375 C 5.890625 -21.476562 5.3125 -16.648438 4.90625 -11.859375 C 4.507812 -7.066406 4.429688 -2.734375 4.671875 1.140625 C 4.910156 5.015625 5.550781 7.988281 6.59375 10.0625 C 7.945312 9.34375 9.0625 8.265625 9.9375 6.828125 C 10.820312 5.390625 11.582031 3.992188 12.21875 2.640625 C 14.050781 -0.878906 15.847656 -4.59375 17.609375 -8.5 C 19.367188 -12.414062 21.207031 -16.09375 23.125 -19.53125 C 23.757812 -20.800781 24.4375 -21.4375 25.15625 -21.4375 C 25.476562 -21.4375 25.738281 -21.296875 25.9375 -21.015625 C 26.132812 -20.742188 26.234375 -20.445312 26.234375 -20.125 C 26.234375 -19.882812 25.910156 -19.125 25.265625 -17.84375 C 24.628906 -16.570312 23.972656 -15.253906 23.296875 -13.890625 C 22.617188 -12.535156 22.160156 -11.660156 21.921875 -11.265625 C 21.117188 -9.585938 20.21875 -7.628906 19.21875 -5.390625 C 18.226562 -3.148438 17.253906 -0.953125 16.296875 1.203125 C 15.335938 3.359375 14.414062 5.191406 13.53125 6.703125 C 13.132812 7.347656 12.597656 8.207031 11.921875 9.28125 C 11.242188 10.363281 10.503906 11.300781 9.703125 12.09375 C 8.898438 12.894531 7.984375 13.296875 6.953125 13.296875 C 5.347656 13.296875 4.085938 12.492188 3.171875 10.890625 C 2.253906 9.296875 1.59375 7.300781 1.1875 4.90625 C 0.789062 2.507812 0.53125 0.0351562 0.40625 -2.515625 C 0.289062 -5.066406 0.234375 -7.300781 0.234375 -9.21875 Z M 0.234375 -9.21875 "/></g></g></g><g fill="#fffef9" fill-opacity="1"><g transform="translate(175.925442, 189.376706)"><g><path d="M 5.515625 -21.6875 C 7.023438 -22.476562 8.695312 -23.570312 10.53125 -24.96875 C 12.375 -26.375 13.375 -28.035156 13.53125 -29.953125 C 12.5 -29.785156 11.398438 -29.222656 10.234375 -28.265625 C 9.078125 -27.304688 8.078125 -26.226562 7.234375 -25.03125 C 6.398438 -23.832031 5.828125 -22.71875 5.515625 -21.6875 Z M 0.125 -18.8125 C 0.125 -20.800781 0.78125 -22.953125 2.09375 -25.265625 C 3.414062 -27.585938 5.050781 -29.566406 7 -31.203125 C 8.957031 -32.835938 10.894531 -33.65625 12.8125 -33.65625 C 15.445312 -33.65625 16.820312 -32.65625 16.9375 -30.65625 C 17.0625 -28.664062 16.207031 -26.515625 14.375 -24.203125 C 13.414062 -23.160156 11.976562 -21.957031 10.0625 -20.59375 C 8.144531 -19.238281 6.269531 -18.484375 4.4375 -18.328125 C 4.4375 -17.046875 4.472656 -15.90625 4.546875 -14.90625 C 4.628906 -13.914062 5.191406 -12.898438 6.234375 -11.859375 C 7.265625 -10.816406 8.582031 -10.296875 10.1875 -10.296875 C 12.257812 -10.296875 14.410156 -10.953125 16.640625 -12.265625 C 18.878906 -13.585938 20.597656 -14.691406 21.796875 -15.578125 C 22.273438 -15.972656 22.65625 -16.289062 22.9375 -16.53125 C 23.21875 -16.769531 23.554688 -17.050781 23.953125 -17.375 C 25.628906 -18.644531 26.6875 -19.578125 27.125 -20.171875 C 27.570312 -20.773438 27.953125 -21.175781 28.265625 -21.375 C 28.585938 -21.582031 29.347656 -21.6875 30.546875 -21.6875 C 30.703125 -20.800781 30.757812 -20.195312 30.71875 -19.875 C 30.675781 -19.5625 30.378906 -19.085938 29.828125 -18.453125 C 28.390625 -17.015625 26.570312 -15.375 24.375 -13.53125 C 22.175781 -11.695312 19.816406 -10.097656 17.296875 -8.734375 C 14.785156 -7.378906 12.296875 -6.703125 9.828125 -6.703125 C 8.546875 -6.703125 7.328125 -6.921875 6.171875 -7.359375 C 5.015625 -7.804688 3.914062 -8.546875 2.875 -9.578125 C 1.4375 -11.015625 0.617188 -12.492188 0.421875 -14.015625 C 0.222656 -15.535156 0.125 -17.132812 0.125 -18.8125 Z M 0.125 -18.8125 "/></g></g></g><g fill="#fffef9" fill-opacity="1"><g transform="translate(201.916595, 189.376706)"><g><path d="M 9.9375 0.484375 C 8.34375 0.484375 6.925781 -0.0351562 5.6875 -1.078125 C 4.445312 -2.117188 3.507812 -3.195312 2.875 -4.3125 C 1.4375 -7.03125 0.617188 -10.242188 0.421875 -13.953125 C 0.222656 -17.671875 0.441406 -21.046875 1.078125 -24.078125 C 1.234375 -24.953125 1.453125 -26.007812 1.734375 -27.25 C 2.015625 -28.488281 2.429688 -29.585938 2.984375 -30.546875 C 3.546875 -31.503906 4.226562 -31.984375 5.03125 -31.984375 C 6.863281 -31.984375 7.757812 -31.363281 7.71875 -30.125 C 7.6875 -28.882812 7.347656 -26.96875 6.703125 -24.375 C 6.066406 -21.78125 5.75 -18.445312 5.75 -14.375 C 5.75 -13.175781 5.90625 -11.738281 6.21875 -10.0625 C 6.539062 -8.382812 7.039062 -6.90625 7.71875 -5.625 C 8.40625 -4.351562 9.265625 -3.71875 10.296875 -3.71875 C 11.578125 -3.71875 13.035156 -4.273438 14.671875 -5.390625 C 16.304688 -6.503906 17.820312 -7.757812 19.21875 -9.15625 C 20.625 -10.5625 21.601562 -11.625 22.15625 -12.34375 C 22.320312 -12.5 22.765625 -13.035156 23.484375 -13.953125 C 24.203125 -14.867188 25.054688 -15.90625 26.046875 -17.0625 C 27.046875 -18.226562 28.023438 -19.25 28.984375 -20.125 C 29.941406 -21 30.703125 -21.4375 31.265625 -21.4375 C 31.816406 -21.4375 32.09375 -20.957031 32.09375 -20 C 32.09375 -19.445312 31.710938 -18.585938 30.953125 -17.421875 C 30.203125 -16.265625 29.304688 -15.046875 28.265625 -13.765625 C 27.234375 -12.492188 26.21875 -11.296875 25.21875 -10.171875 C 24.21875 -9.054688 23.476562 -8.257812 23 -7.78125 C 22.039062 -6.820312 20.898438 -5.679688 19.578125 -4.359375 C 18.265625 -3.046875 16.804688 -1.910156 15.203125 -0.953125 C 13.609375 0.00390625 11.851562 0.484375 9.9375 0.484375 Z M 6.109375 -47.078125 C 6.109375 -48.429688 6.46875 -49.609375 7.1875 -50.609375 C 7.90625 -51.609375 8.703125 -52.109375 9.578125 -52.109375 C 10.535156 -52.109375 11.335938 -51.507812 11.984375 -50.3125 C 13.097656 -48.070312 13.234375 -46.332031 12.390625 -45.09375 C 11.554688 -43.851562 10.539062 -43.234375 9.34375 -43.234375 C 8.539062 -43.234375 7.800781 -43.550781 7.125 -44.1875 C 6.445312 -44.832031 6.109375 -45.796875 6.109375 -47.078125 Z M 6.109375 -47.078125 "/></g></g></g><g fill="#fffef9" fill-opacity="1"><g transform="translate(229.22526, 189.376706)"><g><path d="M 6.34375 -9.703125 C 4.664062 -9.703125 3.488281 -10.539062 2.8125 -12.21875 C 2.132812 -13.894531 1.832031 -15.96875 1.90625 -18.4375 C 1.988281 -20.914062 2.3125 -23.394531 2.875 -25.875 C 3.4375 -28.351562 4.132812 -30.425781 4.96875 -32.09375 C 5.8125 -33.769531 6.671875 -34.609375 7.546875 -34.609375 C 9.066406 -34.609375 9.960938 -34.269531 10.234375 -33.59375 C 10.515625 -32.914062 10.457031 -31.859375 10.0625 -30.421875 C 9.664062 -28.984375 9.207031 -27.164062 8.6875 -24.96875 C 8.164062 -22.78125 7.90625 -20.164062 7.90625 -17.125 C 8.0625 -17.289062 8.179688 -17.410156 8.265625 -17.484375 C 8.347656 -17.566406 8.425781 -17.648438 8.5 -17.734375 L 14.140625 -27.1875 C 14.617188 -27.988281 15.273438 -29.046875 16.109375 -30.359375 C 16.953125 -31.679688 17.867188 -32.878906 18.859375 -33.953125 C 19.859375 -35.035156 20.835938 -35.578125 21.796875 -35.578125 C 23.640625 -35.578125 24.835938 -34.640625 25.390625 -32.765625 C 25.953125 -30.890625 26.234375 -28.992188 26.234375 -27.078125 C 27.109375 -27.234375 28.179688 -27.96875 29.453125 -29.28125 C 30.734375 -30.601562 31.894531 -31.742188 32.9375 -32.703125 C 33.5 -33.335938 34 -33.894531 34.4375 -34.375 C 34.875 -34.851562 35.410156 -35.253906 36.046875 -35.578125 C 36.847656 -35.972656 37.566406 -36.171875 38.203125 -36.171875 C 39.003906 -36.171875 39.6875 -35.851562 40.25 -35.21875 C 40.800781 -34.570312 41.117188 -33.390625 41.203125 -31.671875 C 41.285156 -29.960938 41.242188 -27.988281 41.078125 -25.75 C 40.921875 -23.519531 40.742188 -21.285156 40.546875 -19.046875 C 40.347656 -16.804688 40.25 -14.847656 40.25 -13.171875 C 40.25 -9.503906 40.546875 -6.929688 41.140625 -5.453125 C 41.742188 -3.972656 42.5625 -3.234375 43.59375 -3.234375 C 44.789062 -3.234375 46.128906 -4.03125 47.609375 -5.625 C 49.085938 -7.226562 50.566406 -9.109375 52.046875 -11.265625 C 53.523438 -13.421875 54.78125 -15.375 55.8125 -17.125 C 56.375 -18.007812 56.914062 -18.890625 57.4375 -19.765625 C 57.957031 -20.640625 58.851562 -21.078125 60.125 -21.078125 C 60.363281 -21.078125 60.625 -20.914062 60.90625 -20.59375 C 61.1875 -20.28125 61.328125 -19.925781 61.328125 -19.53125 C 61.328125 -19.050781 61.085938 -18.367188 60.609375 -17.484375 C 60.128906 -16.609375 59.628906 -15.75 59.109375 -14.90625 C 58.585938 -14.070312 58.171875 -13.414062 57.859375 -12.9375 C 57.535156 -12.375 57.253906 -11.894531 57.015625 -11.5 C 56.773438 -11.101562 56.457031 -10.582031 56.0625 -9.9375 C 55.738281 -9.457031 55.414062 -9.035156 55.09375 -8.671875 C 54.78125 -8.316406 54.421875 -7.820312 54.015625 -7.1875 C 52.503906 -4.945312 50.6875 -2.988281 48.5625 -1.3125 C 46.445312 0.363281 44.394531 1.203125 42.40625 1.203125 C 41.28125 1.203125 40.195312 0.84375 39.15625 0.125 C 38.125 -0.59375 37.289062 -1.832031 36.65625 -3.59375 C 35.53125 -6.550781 34.988281 -9.664062 35.03125 -12.9375 C 35.070312 -16.207031 35.332031 -19.398438 35.8125 -22.515625 C 36.289062 -25.628906 36.53125 -28.34375 36.53125 -30.65625 C 35.726562 -30.101562 34.75 -29.1875 33.59375 -27.90625 C 32.4375 -26.632812 31.257812 -25.457031 30.0625 -24.375 C 28.863281 -23.300781 27.707031 -22.765625 26.59375 -22.765625 C 24.757812 -22.765625 23.5 -23.640625 22.8125 -25.390625 C 22.132812 -27.148438 21.796875 -28.90625 21.796875 -30.65625 C 20.441406 -29.78125 19.144531 -28.222656 17.90625 -25.984375 C 16.664062 -23.753906 15.425781 -21.398438 14.1875 -18.921875 C 12.957031 -16.453125 11.722656 -14.316406 10.484375 -12.515625 C 9.242188 -10.722656 7.945312 -9.785156 6.59375 -9.703125 Z M 6.34375 -9.703125 "/></g></g></g><g fill="#fffef9" fill-opacity="1"><g transform="translate(285.160126, 189.376706)"><g><path d="M 0 -12.09375 C 0 -13.769531 0.394531 -15.847656 1.1875 -18.328125 C 1.988281 -20.804688 3.109375 -23.257812 4.546875 -25.6875 C 5.984375 -28.125 7.640625 -30.140625 9.515625 -31.734375 C 11.398438 -33.335938 13.378906 -34.140625 15.453125 -34.140625 C 17.367188 -34.140625 18.925781 -33.578125 20.125 -32.453125 C 21.320312 -31.335938 22.039062 -30.203125 22.28125 -29.046875 C 22.519531 -27.890625 22.117188 -27.3125 21.078125 -27.3125 C 20.285156 -27.3125 19.46875 -27.769531 18.625 -28.6875 C 17.789062 -29.601562 16.8125 -30.0625 15.6875 -30.0625 C 14.8125 -30.0625 13.753906 -29.539062 12.515625 -28.5 C 11.273438 -27.46875 9.78125 -25.4375 8.03125 -22.40625 C 7.226562 -21.125 6.488281 -19.460938 5.8125 -17.421875 C 5.132812 -15.390625 4.796875 -13.375 4.796875 -11.375 C 4.953125 -11.539062 5.007812 -11.601562 4.96875 -11.5625 C 4.925781 -11.519531 5.066406 -11.660156 5.390625 -11.984375 L 6.34375 -13.421875 C 6.988281 -14.378906 7.726562 -15.613281 8.5625 -17.125 C 9.40625 -18.644531 10.265625 -20.179688 11.140625 -21.734375 C 12.015625 -23.296875 12.8125 -24.613281 13.53125 -25.6875 C 14.25 -26.769531 14.8125 -27.3125 15.21875 -27.3125 C 16.65625 -27.3125 17.492188 -26.789062 17.734375 -25.75 C 17.972656 -24.71875 18.070312 -23.441406 18.03125 -21.921875 C 17.988281 -20.398438 18.128906 -18.882812 18.453125 -17.375 C 18.929688 -15.21875 19.664062 -13.640625 20.65625 -12.640625 C 21.65625 -11.640625 22.796875 -11.140625 24.078125 -11.140625 C 26.316406 -11.140625 28.789062 -12.5 31.5 -15.21875 C 32.613281 -16.25 33.410156 -17.101562 33.890625 -17.78125 C 34.367188 -18.46875 35.007812 -19.25 35.8125 -20.125 C 36.375 -20.925781 37.09375 -21.328125 37.96875 -21.328125 C 38.84375 -21.328125 39.21875 -20.585938 39.09375 -19.109375 C 38.976562 -17.628906 37.40625 -15.410156 34.375 -12.453125 L 30.78125 -9.578125 C 28.46875 -7.984375 26.234375 -7.1875 24.078125 -7.1875 C 22.078125 -7.1875 20.335938 -7.785156 18.859375 -8.984375 C 17.390625 -10.179688 16.253906 -11.65625 15.453125 -13.40625 C 14.648438 -15.164062 14.25 -16.882812 14.25 -18.5625 C 13.695312 -18.164062 13.0625 -17.285156 12.34375 -15.921875 C 11.625 -14.566406 10.84375 -13.109375 10 -11.546875 C 9.164062 -9.992188 8.304688 -8.640625 7.421875 -7.484375 C 6.546875 -6.328125 5.671875 -5.75 4.796875 -5.75 C 2.554688 -5.75 1.195312 -6.265625 0.71875 -7.296875 C 0.238281 -8.335938 0 -9.9375 0 -12.09375 Z M 0 -12.09375 "/></g></g></g><g fill="#fffef9" fill-opacity="1"><g transform="translate(319.894832, 189.376706)"><g><path d="M 3.359375 -6.234375 C 1.835938 -6.234375 0.859375 -7.148438 0.421875 -8.984375 C -0.015625 -10.816406 -0.078125 -13.109375 0.234375 -15.859375 C 0.554688 -18.617188 1.132812 -21.375 1.96875 -24.125 C 2.8125 -26.882812 3.75 -29.179688 4.78125 -31.015625 C 5.820312 -32.859375 6.785156 -33.78125 7.671875 -33.78125 C 9.023438 -33.78125 9.660156 -33.160156 9.578125 -31.921875 C 9.503906 -30.679688 9.109375 -29.039062 8.390625 -27 C 7.671875 -24.96875 6.953125 -22.734375 6.234375 -20.296875 C 5.515625 -17.867188 5.15625 -15.492188 5.15625 -13.171875 L 10.90625 -21.921875 C 11.144531 -22.398438 11.660156 -23.238281 12.453125 -24.4375 C 13.253906 -25.632812 14.15625 -26.75 15.15625 -27.78125 C 16.15625 -28.820312 17.132812 -29.34375 18.09375 -29.34375 C 19.050781 -29.34375 19.804688 -28.707031 20.359375 -27.4375 L 21.078125 -20.71875 C 21.078125 -20 21.117188 -18.878906 21.203125 -17.359375 C 21.285156 -15.847656 21.460938 -14.3125 21.734375 -12.75 C 22.015625 -11.195312 22.472656 -9.859375 23.109375 -8.734375 C 23.753906 -7.617188 24.632812 -7.0625 25.75 -7.0625 C 26.945312 -7.0625 28.203125 -7.78125 29.515625 -9.21875 C 30.835938 -10.65625 32.117188 -12.3125 33.359375 -14.1875 C 34.597656 -16.070312 35.710938 -17.734375 36.703125 -19.171875 C 37.703125 -20.609375 38.484375 -21.328125 39.046875 -21.328125 C 40.242188 -21.328125 40.800781 -20.863281 40.71875 -19.9375 C 40.644531 -19.019531 40.25 -17.960938 39.53125 -16.765625 C 38.8125 -15.566406 38.070312 -14.445312 37.3125 -13.40625 C 36.550781 -12.375 36.09375 -11.738281 35.9375 -11.5 C 35.375 -10.78125 34.613281 -9.859375 33.65625 -8.734375 C 32.695312 -7.617188 31.695312 -6.582031 30.65625 -5.625 C 29.625 -4.664062 28.628906 -4.066406 27.671875 -3.828125 C 26.867188 -3.585938 26.109375 -3.46875 25.390625 -3.46875 C 23.554688 -3.46875 22.097656 -4.144531 21.015625 -5.5 C 19.941406 -6.863281 19.125 -8.34375 18.5625 -9.9375 C 17.769531 -12.332031 17.332031 -14.46875 17.25 -16.34375 C 17.164062 -18.226562 17.164062 -19.828125 17.25 -21.140625 C 17.332031 -22.460938 17.171875 -23.484375 16.765625 -24.203125 C 15.804688 -23.554688 14.785156 -22.273438 13.703125 -20.359375 C 12.628906 -18.441406 11.515625 -16.382812 10.359375 -14.1875 C 9.203125 -12 8.046875 -10.125 6.890625 -8.5625 C 5.734375 -7.007812 4.554688 -6.234375 3.359375 -6.234375 Z M 3.359375 -6.234375 "/></g></g></g><path fill="#122620" d="M 235.351562 273.230469 C 231.597656 275.320312 227.730469 277.167969 223.742188 278.769531 C 219.757812 280.371094 215.683594 281.714844 211.527344 282.804688 C 207.371094 283.890625 203.164062 284.714844 198.902344 285.269531 C 194.644531 285.824219 190.363281 286.109375 186.070312 286.125 C 181.773438 286.140625 177.492188 285.886719 173.226562 285.359375 C 168.964844 284.835938 164.75 284.042969 160.585938 282.984375 C 156.421875 281.925781 152.339844 280.613281 148.34375 279.039062 C 144.347656 277.464844 140.464844 275.644531 136.695312 273.582031 L 147.621094 253.640625 C 150.546875 255.246094 153.566406 256.65625 156.671875 257.882812 C 159.777344 259.105469 162.949219 260.125 166.1875 260.949219 C 169.421875 261.769531 172.695312 262.386719 176.011719 262.792969 C 179.324219 263.203125 182.648438 263.402344 185.988281 263.390625 C 189.328125 263.378906 192.652344 263.15625 195.960938 262.722656 C 199.273438 262.292969 202.542969 261.652344 205.773438 260.808594 C 209 259.960938 212.164062 258.917969 215.261719 257.671875 C 218.359375 256.425781 221.367188 254.992188 224.285156 253.367188 Z M 235.351562 273.230469 " fill-opacity="1" fill-rule="nonzero"/><g fill="#fffef9" fill-opacity="1"><g transform="translate(143.193062, 270.291524)"><g><path d="M 10.515625 -7.359375 L 7.421875 -0.40625 C 6.972656 0.59375 6.347656 1.25 5.546875 1.5625 C 4.753906 1.875 3.867188 1.8125 2.890625 1.375 C 1.703125 0.84375 0.929688 -0.078125 0.578125 -1.390625 L 1.953125 -2.328125 C 2.316406 -1.296875 2.867188 -0.613281 3.609375 -0.28125 C 4.066406 -0.0820312 4.484375 -0.0625 4.859375 -0.21875 C 5.234375 -0.375 5.535156 -0.707031 5.765625 -1.21875 L 8.140625 -6.59375 L 4.65625 -8.140625 L 5.34375 -9.65625 Z M 10.515625 -7.359375 "/></g></g></g><g fill="#fffef9" fill-opacity="1"><g transform="translate(163.633032, 277.762817)"><g><path d="M 12.484375 -9.015625 L 11.390625 -2.65625 C 11.148438 -1.25 10.539062 -0.210938 9.5625 0.453125 C 8.59375 1.128906 7.375 1.34375 5.90625 1.09375 C 4.445312 0.84375 3.363281 0.238281 2.65625 -0.71875 C 1.957031 -1.6875 1.726562 -2.875 1.96875 -4.28125 L 3.0625 -10.640625 L 4.890625 -10.328125 L 3.796875 -3.96875 C 3.640625 -3.0625 3.773438 -2.304688 4.203125 -1.703125 C 4.640625 -1.097656 5.304688 -0.71875 6.203125 -0.5625 C 7.085938 -0.40625 7.832031 -0.535156 8.4375 -0.953125 C 9.039062 -1.378906 9.421875 -2.050781 9.578125 -2.96875 L 10.671875 -9.328125 Z M 12.484375 -9.015625 "/></g></g></g><g fill="#fffef9" fill-opacity="1"><g transform="translate(189.628233, 280.363616)"><g><path d="M 12.984375 -1.5 L 11.28125 -1.296875 L 10.328125 -9.46875 L 7.703125 -2.046875 L 6.484375 -1.90625 L 2.234375 -8.53125 L 3.171875 -0.359375 L 1.421875 -0.171875 L 0.15625 -11.09375 L 2.34375 -11.34375 L 6.796875 -4.484375 L 9.53125 -12.171875 L 11.71875 -12.421875 Z M 12.984375 -1.5 "/></g></g></g><g fill="#fffef9" fill-opacity="1"><g transform="translate(217.709107, 274.913937)"><g><path d="M 6.90625 -5.609375 L 1.796875 -3.453125 L 1.796875 -0.75 L 0.015625 0 L 0.25 -12.03125 L 1.984375 -12.765625 L 10.671875 -4.484375 L 8.84375 -3.71875 Z M 5.625 -6.828125 L 1.828125 -10.546875 L 1.8125 -5.21875 Z M 5.625 -6.828125 "/></g></g></g></svg>